<svg width="262" height="262" xmlns="http://www.w3.org/2000/svg">
  <rect x="0" y="0" width="262" height="262" fill="#f0f0f0" />
  <rect x="2" y="2" width="50" height="50" rx="4" fill="#64748b" />
  <text x="27.0" y="32.0" font-family="Arial, sans-serif" font-size="20" fill="#ffffff" text-anchor="middle" font-weight="bold">X</text>
  <rect x="54" y="2" width="50" height="50" rx="4" fill="#64748b" />
  <text x="79.0" y="32.0" font-family="Arial, sans-serif" font-size="20" fill="#ffffff" text-anchor="middle" font-weight="bold">X</text>
  <rect x="106" y="2" width="50" height="50" rx="4" fill="#64748b" />
  <text x="131.0" y="32.0" font-family="Arial, sans-serif" font-size="20" fill="#ffffff" text-anchor="middle" font-weight="bold">X</text>
  <rect x="158" y="2" width="50" height="50" rx="4" fill="#64748b" />
  <text x="183.0" y="32.0" font-family="Arial, sans-serif" font-size="20" fill="#ffffff" text-anchor="middle" font-weight="bold">X</text>
  <rect x="210" y="2" width="50" height="50" rx="4" fill="#ffffff" />
  <text x="235.0" y="32.0" font-family="Arial, sans-serif" font-size="20" fill="#000000" text-anchor="middle" font-weight="bold">O</text>
  <rect x="2" y="54" width="50" height="50" rx="4" fill="#64748b" />
  <text x="27.0" y="84.0" font-family="Arial, sans-serif" font-size="20" fill="#ffffff" text-anchor="middle" font-weight="bold">X</text>
  <rect x="54" y="54" width="50" height="50" rx="4" fill="#64748b" />
  <text x="79.0" y="84.0" font-family="Arial, sans-serif" font-size="20" fill="#ffffff" text-anchor="middle" font-weight="bold">X</text>
  <rect x="106" y="54" width="50" height="50" rx="4" fill="#ffffff" />
  <text x="131.0" y="84.0" font-family="Arial, sans-serif" font-size="20" fill="#000000" text-anchor="middle" font-weight="bold">O</text>
  <rect x="158" y="54" width="50" height="50" rx="4" fill="#64748b" />
  <text x="183.0" y="84.0" font-family="Arial, sans-serif" font-size="20" fill="#ffffff" text-anchor="middle" font-weight="bold">X</text>
  <rect x="210" y="54" width="50" height="50" rx="4" fill="#64748b" />
  <text x="235.0" y="84.0" font-family="Arial, sans-serif" font-size="20" fill="#ffffff" text-anchor="middle" font-weight="bold">X</text>
  <rect x="2" y="106" width="50" height="50" rx="4" fill="#64748b" />
  <text x="27.0" y="136.0" font-family="Arial, sans-serif" font-size="20" fill="#ffffff" text-anchor="middle" font-weight="bold">X</text>
  <rect x="54" y="106" width="50" height="50" rx="4" fill="#64748b" />
  <text x="79.0" y="136.0" font-family="Arial, sans-serif" font-size="20" fill="#ffffff" text-anchor="middle" font-weight="bold">X</text>
  <rect x="106" y="106" width="50" height="50" rx="4" fill="#ffffff" />
  <text x="131.0" y="136.0" font-family="Arial, sans-serif" font-size="20" fill="#000000" text-anchor="middle" font-weight="bold">O</text>
  <rect x="158" y="106" width="50" height="50" rx="4" fill="#64748b" />
  <text x="183.0" y="136.0" font-family="Arial, sans-serif" font-size="20" fill="#ffffff" text-anchor="middle" font-weight="bold">X</text>
  <rect x="210" y="106" width="50" height="50" rx="4" fill="#ffffff" />
  <text x="235.0" y="136.0" font-family="Arial, sans-serif" font-size="20" fill="#000000" text-anchor="middle" font-weight="bold">O</text>
  <rect x="2" y="158" width="50" height="50" rx="4" fill="#64748b" />
  <text x="27.0" y="188.0" font-family="Arial, sans-serif" font-size="20" fill="#ffffff" text-anchor="middle" font-weight="bold">X</text>
  <rect x="54" y="158" width="50" height="50" rx="4" fill="#ffffff" />
  <text x="79.0" y="188.0" font-family="Arial, sans-serif" font-size="20" fill="#000000" text-anchor="middle" font-weight="bold">O</text>
  <rect x="106" y="158" width="50" height="50" rx="4" fill="#64748b" />
  <text x="131.0" y="188.0" font-family="Arial, sans-serif" font-size="20" fill="#ffffff" text-anchor="middle" font-weight="bold">X</text>
  <rect x="158" y="158" width="50" height="50" rx="4" fill="#64748b" />
  <text x="183.0" y="188.0" font-family="Arial, sans-serif" font-size="20" fill="#ffffff" text-anchor="middle" font-weight="bold">X</text>
  <rect x="210" y="158" width="50" height="50" rx="4" fill="#64748b" />
  <text x="235.0" y="188.0" font-family="Arial, sans-serif" font-size="20" fill="#ffffff" text-anchor="middle" font-weight="bold">X</text>
  <rect x="2" y="210" width="50" height="50" rx="4" fill="#64748b" />
  <text x="27.0" y="240.0" font-family="Arial, sans-serif" font-size="20" fill="#ffffff" text-anchor="middle" font-weight="bold">X</text>
  <rect x="54" y="210" width="50" height="50" rx="4" fill="#ffffff" />
  <text x="79.0" y="240.0" font-family="Arial, sans-serif" font-size="20" fill="#000000" text-anchor="middle" font-weight="bold">O</text>
  <rect x="106" y="210" width="50" height="50" rx="4" fill="#64748b" />
  <text x="131.0" y="240.0" font-family="Arial, sans-serif" font-size="20" fill="#ffffff" text-anchor="middle" font-weight="bold">X</text>
  <rect x="158" y="210" width="50" height="50" rx="4" fill="#64748b" />
  <text x="183.0" y="240.0" font-family="Arial, sans-serif" font-size="20" fill="#ffffff" text-anchor="middle" font-weight="bold">X</text>
  <rect x="210" y="210" width="50" height="50" rx="4" fill="#64748b" />
  <text x="235.0" y="240.0" font-family="Arial, sans-serif" font-size="20" fill="#ffffff" text-anchor="middle" font-weight="bold">X</text>
</svg>